<?xml version="1.0" encoding="UTF-8"?>
<svg id="Calque_1" data-name="Calque 1" xmlns="http://www.w3.org/2000/svg" viewBox="0 0 1500 1500">
  <defs>
    <style>
      .cls-1 {
        fill: #fff;
      }

      .cls-2 {
        fill: #d6534b;
      }

      .cls-3 {
        fill: #dd9d90;
      }

      .cls-4 {
        fill: #1d1d1b;
      }
    </style>
  </defs>
  <path class="cls-1" d="M821.73,286.39c12.16,.93,24.27,2.74,36.34,4.54,83.08,12.4,161.53,38.38,234.11,81,67.51,39.65,125.37,89.98,166.12,157.56,61.48,101.97,68.82,207.7,17.13,315.83-30.28,63.35-76.75,113.6-132.95,154.82-110.92,81.35-236.99,118.56-373.02,125.84-35.71,1.91-71.28-.92-106.72-4.97-7.94-.91-13.66,1.38-19.72,5.81-35.01,25.6-71.74,48.42-111.73,65.47-71.49,30.48-145.63,51.68-222.92,60.66-21.81,2.53-43.96,2.15-65.96,3.05-4.9,.2-8.71-1.43-9.84-6.76-1.44-6.85,2.47-13.82,9.11-16.33,31.63-11.96,61.25-27.78,89.08-46.91,24.4-16.77,47.03-35.65,64.42-59.82,17.22-23.95,26.97-50.35,22.55-80.59-.61-4.17-2.17-6.78-5.89-8.91-10.61-6.05-21.17-12.21-31.39-18.89-61.86-40.43-113.21-90.99-148.77-156.37-34.11-62.7-47.99-129.54-38.63-200.57,7.81-59.26,31.12-112.34,66.48-160.24,45.13-61.14,103.22-106.98,170.12-142,100.01-52.35,207.18-75.07,330.5-76.11,13.23,.81,37.43,2.04,61.58,3.89Z"/>
  <g>
    <path class="cls-3" d="M1041.44,778.39c.59-24.53,7.92-47.38,17.6-69.56,16.59-37.99,38.92-72.6,63.86-105.52,12.33-16.27,25.62-31.8,38.54-47.62,2-2.44,4.31-5.35,7.94-3.46,3.66,1.9,2.47,5.41,1.64,8.48-7.75,28.68-8.33,57.23,1.55,85.59,5.52,15.84,14.03,30.16,22.35,44.63,9.3,16.16,19.11,32.22,26.36,49.31,13.28,31.33,11.31,62.48-8.02,91.01-19.64,28.98-47.95,42.67-82.81,41.18-47.3-2.03-86.12-41.23-88.63-88.41-.1-1.87-.25-3.75-.38-5.62Zm10.71-2.17c-.17,25.15,7.9,45.29,23.49,60.37,14.79,14.31,32.66,22.41,52.95,24.77,31.07,3.62,55.76-7.52,73.24-33.56,8.65-12.89,6.5-30.39-4.55-41.36-2.5-2.48-3.65-5.12-2.97-8.51,2.72-13.43-1.74-25.28-8.27-36.57-4.17-7.21-10.49-11.81-18.87-12.66-5.45-.55-10.99-.3-16.5-.26-6.68,.04-13.43,.93-20.01,.21-11.24-1.22-21.65-7.19-17.14-23.26,.82-2.92,1.33-5.97,1.61-9,.69-7.43-2.86-12.6-9.18-16.05-6.07-3.32-11.99-2.49-17.03,1.87-3.68,3.19-7.43,6.77-9.76,10.95-5.34,9.61-10.32,19.49-14.57,29.63-7.45,17.77-11.85,36.34-12.45,53.41Z"/>
    <path class="cls-2" d="M1052.15,776.22c.59-17.07,5-35.64,12.45-53.41,4.25-10.14,9.23-20.02,14.57-29.63,2.33-4.18,6.08-7.76,9.76-10.95,5.03-4.37,10.95-5.19,17.03-1.87,6.32,3.45,9.88,8.62,9.18,16.05-.28,3.03-.79,6.08-1.61,9-4.51,16.06,5.9,22.03,17.14,23.26,6.58,.72,13.34-.17,20.01-.21,5.5-.04,11.04-.3,16.5,.26,8.39,.85,14.7,5.45,18.87,12.66,6.54,11.3,10.99,23.14,8.27,36.57-.69,3.39,.47,6.03,2.97,8.51,11.05,10.97,13.2,28.48,4.55,41.36-17.48,26.04-42.17,37.17-73.24,33.56-20.29-2.36-38.17-10.46-52.95-24.77-15.59-15.09-23.66-35.23-23.49-60.37Z"/>
  </g>
  <g>
    <path class="cls-4" d="M572.5,592.52c0,6.74-1.44,13.48-4.34,20.22-2.89,6.74-6.58,12.92-11.07,18.53-4.49,5.62-9.55,10.2-15.16,13.72-5.62,3.53-11.31,5.29-17.09,5.29-4.18,0-8.02-1.04-11.56-3.13-3.53-2.08-7.29-4.4-11.31-6.98-4.02-2.56-8.51-4.89-13.47-6.98-4.98-2.08-11.01-3.13-18.06-3.13-13.16,0-25.19,3.37-36.1,10.11-10.91,6.74-20.3,15.64-28.16,26.71-7.88,11.07-14.05,23.83-18.54,38.27-4.49,14.44-6.73,29.53-6.73,45.25,0,14.44,1.6,27.68,4.81,39.71,3.19,12.04,7.86,22.39,13.96,31.05,6.09,8.66,13.63,15.48,22.63,20.46,8.98,4.98,19.24,7.46,30.8,7.46,13.16,0,24.7-1.6,34.66-4.81,9.95-3.2,19.1-9.3,27.44-18.29,3.21-3.53,5.85-7.53,7.94-12.03,2.07-4.49,4.08-8.83,6.01-13,1.93-4.17,3.92-7.62,6.01-10.35,2.09-2.72,4.73-4.09,7.94-4.09,3.53,0,6.18,1.13,7.94,3.37,1.77,2.25,2.66,4.34,2.66,6.26,0,5.14-2.74,12.12-8.19,20.94-5.46,8.83-13.16,17.57-23.12,26.24-9.95,8.66-21.98,16.2-36.1,22.62-14.12,6.42-29.68,9.63-46.69,9.63-18.95,0-36.28-2.89-52-8.66-15.72-5.78-29.36-14.52-40.91-26.24-11.54-11.71-20.54-26.39-26.96-44.04-6.42-17.65-9.63-38.34-9.63-62.1,0-31.77,4.81-61.06,14.44-87.85,9.63-26.8,22.63-49.89,39-69.31,16.36-19.42,35.45-34.58,57.27-45.49,21.84-10.91,44.93-16.36,69.33-16.36,25.98,0,46.21,6.58,60.64,19.74,14.44,13.16,21.67,32.25,21.67,57.28Z"/>
    <path class="cls-4" d="M737.12,672.42c7.72,0,13.97,3.61,18.79,10.84,4.81,7.22,8.74,16.29,11.78,27.19,3.05,10.92,5.46,22.79,7.23,35.62,1.75,12.85,3.52,24.72,5.28,35.62,1.77,10.92,3.86,19.98,6.26,27.2,2.42,7.22,5.71,10.83,9.87,10.83,3.53,0,7.38-1.68,11.56-5.05,4.17-3.37,8.33-7.06,12.51-11.07,4.17-4.01,8.01-7.71,11.56-11.07,3.52-3.37,6.4-5.06,8.66-5.06s3.37,1.13,3.37,3.37c0,4.17-2.58,10.11-7.7,17.81-5.14,7.71-11.4,15.33-18.77,22.86-7.39,7.55-15.17,14.13-23.36,19.74-8.17,5.61-15.48,8.42-21.9,8.42-9.3,0-17.17-2.65-23.59-7.94-6.42-5.29-11.88-11.95-16.37-19.98-4.49-8.02-8.11-16.61-10.83-25.75-2.72-9.15-5.14-17.73-7.21-25.76-2.09-8.02-4.02-14.68-5.77-19.98-1.78-5.29-3.78-7.93-6.03-7.93-2.89,0-6.18,2.25-9.86,6.74-3.7,4.5-7.72,10.59-12.04,18.29-4.33,7.7-8.98,16.85-13.96,27.44-4.98,10.59-10.34,21.99-16.13,34.18-5.14,10.59-10.59,17.97-16.37,22.14-5.77,4.17-12.51,6.26-20.21,6.26-10.59,0-19.1-4.26-25.51-12.76-6.42-8.49-9.63-22.69-9.63-42.6s.73-40.99,2.17-65.23c1.44-24.23,3.53-48.45,6.26-72.69,2.72-24.23,6.09-47.17,10.12-68.84,4-21.66,8.41-39.54,13.23-53.67,5.79-16.68,13.41-29.68,22.87-38.99,9.47-9.3,20.46-13.96,32.97-13.96,9.63,0,17.49,2.89,23.59,8.66,6.09,5.78,9.14,14.13,9.14,25.03,0,5.14-1.2,13.32-3.6,24.55-2.42,11.24-5.38,24.23-8.92,38.99-3.53,14.77-7.46,30.73-11.78,47.9-4.33,17.17-8.43,34.26-12.27,51.26-3.86,17.01-7.23,33.38-10.12,49.1-2.89,15.72-4.65,29.53-5.3,41.4,4.17-9.63,9.39-20.94,15.64-33.94,6.26-12.99,13.32-25.34,21.19-37.06,7.86-11.71,16.29-21.66,25.27-29.84,8.98-8.19,18.3-12.28,27.91-12.28Z"/>
    <path class="cls-4" d="M882.98,656.06c8.67,0,16.53,2.41,23.6,7.22,7.05,4.81,10.59,11.4,10.59,19.74s-1.05,16.93-3.13,26.71c-2.09,9.8-4.41,19.74-6.99,29.85-2.56,10.11-4.9,19.97-6.97,29.6-2.09,9.63-3.13,18.29-3.13,25.99,0,9.95,2.16,17.26,6.5,21.91,4.33,4.65,10.18,6.98,17.56,6.98,6.42,0,13.49-1.84,21.19-5.54,7.7-3.69,15.24-9.22,22.63-16.61,4.49-4.49,7.78-8.26,9.87-11.31,2.07-3.05,4.39-4.57,6.97-4.57,1.6,0,2.89,.57,3.86,1.69,.96,1.13,1.44,2.33,1.44,3.61,0,3.22-1.77,7.07-5.3,11.56-5.46,7.06-11.15,14.04-17.09,20.94-5.95,6.91-12.27,13.16-19.01,18.78-6.74,5.62-14.12,10.19-22.14,13.71-8.02,3.53-16.84,5.29-26.47,5.29-11.25,0-20.94-1.92-29.13-5.77-8.19-3.85-14.93-9.06-20.21-15.64-5.3-6.58-9.32-14.36-12.04-23.35-2.72-8.98-4.08-18.77-4.08-29.36,0-12.83,.41-26.07,1.2-39.71,.79-13.63,2.48-28.32,5.06-44.04,.96-4.81,2.48-10.03,4.57-15.64,2.09-5.62,4.98-10.84,8.67-15.65,3.68-4.81,8.19-8.74,13.47-11.79,5.3-3.05,11.48-4.57,18.53-4.57Zm-25.98-77.98c0-6.09,1.52-11.95,4.57-17.57,3.05-5.61,7.05-10.59,12.03-14.92,4.98-4.34,10.67-7.78,17.1-10.35,6.4-2.57,12.98-3.85,19.73-3.85,11.23,0,20.94,2.89,29.13,8.66,8.19,5.77,12.27,14.76,12.27,26.96,0,7.06-1.52,13.4-4.57,19.01-3.05,5.62-7.23,10.43-12.51,14.44-5.3,4.02-11.4,7.07-18.3,9.15-6.91,2.09-14.36,3.13-22.39,3.13-11.54,0-20.62-3.61-27.18-10.83-6.58-7.22-9.87-15.16-9.87-23.83Z"/>
  </g>
</svg>