<?xml version="1.0" encoding="UTF-8"?>
<svg xmlns="http://www.w3.org/2000/svg" viewBox="0 0 1500 1500">
  <defs>
    <style>
      .cls-1 {
        fill: #f8dccd;
      }

      .cls-2 {
        fill: #68937b;
      }

      .cls-3 {
        fill: #fff;
      }

      .cls-4 {
        fill: #d6534b;
      }

      .cls-5 {
        fill: #dd9d90;
      }

      .cls-6 {
        fill: #db7528;
      }

      .cls-7 {
        fill: #e1ae80;
      }

      .cls-8 {
        fill: #447243;
      }

      .cls-9 {
        isolation: isolate;
      }

      .cls-10 {
        mix-blend-mode: multiply;
        opacity: .52;
      }

      .cls-11 {
        fill: #ffcecf;
        opacity: .39;
      }
    </style>
  </defs>
  <g class="cls-9">
    <g id="Calque_1" data-name="Calque 1">
      <g>
        <rect class="cls-5" x="661.18" y="289.71" width="655.87" height="503.97" rx="55.78" ry="55.78" transform="translate(78.69 -123.82) rotate(7.46)"/>
        <rect class="cls-4" x="692.99" y="344.31" width="589.41" height="416.44" rx="5.98" ry="5.98" transform="translate(80.09 -123.55) rotate(7.46)"/>
        <rect class="cls-3" x="693.87" y="344.37" width="589.42" height="402.83" rx="4.31" ry="4.31" transform="translate(79.22 -123.72) rotate(7.46)"/>
        <path class="cls-11" d="m1305.79,393.06l-50.01,381.97c-.63,4.82-5.05,8.23-9.87,7.6l-566.98-74.23c-4.82-.63-8.21-5.07-7.58-9.88l19.78-151.08c47.24,79.45,136.77,139.31,245.3,153.52,174.05,22.79,331.07-80.42,350.72-230.53,3.99-30.49,2-60.57-5.14-89.33l16.19,2.12c4.82.63,8.21,5.05,7.58,9.86Z"/>
        <path class="cls-4" d="m830.04,296.58l-24.96-3.27c-5.14-.67-8.75-5.38-8.08-10.52h0c.67-5.14,5.38-8.75,10.52-8.08l24.96,3.27c5.14.67,8.75,5.38,8.08,10.52h0c-.67,5.14-5.38,8.75-10.52,8.08Z"/>
        <path class="cls-3" d="m828.62,288.69l-20.66-2.71,6.04-46.15c.75-5.71,5.98-9.73,11.68-8.98h0c5.71.75,9.73,5.98,8.98,11.68l-6.04,46.15Z"/>
        <path class="cls-4" d="m896.85,305.33l-24.96-3.27c-5.14-.67-8.75-5.38-8.08-10.52h0c.67-5.14,5.38-8.75,10.52-8.08l24.96,3.27c5.14.67,8.75,5.38,8.08,10.52h0c-.67,5.14-5.38,8.75-10.52,8.08Z"/>
        <path class="cls-3" d="m895.43,297.43l-20.66-2.71,6.04-46.15c.75-5.71,5.98-9.73,11.68-8.98h0c5.71.75,9.73,5.98,8.98,11.68l-6.04,46.15Z"/>
        <path class="cls-4" d="m963.65,314.07l-24.96-3.27c-5.14-.67-8.75-5.38-8.08-10.52h0c.67-5.14,5.38-8.75,10.52-8.08l24.96,3.27c5.14.67,8.75,5.38,8.08,10.52h0c-.67,5.14-5.38,8.75-10.52,8.08Z"/>
        <path class="cls-3" d="m962.23,306.18l-20.66-2.71,6.04-46.15c.75-5.71,5.98-9.73,11.68-8.98h0c5.71.75,9.73,5.98,8.98,11.68l-6.04,46.15Z"/>
        <path class="cls-4" d="m1030.46,322.82l-24.96-3.27c-5.14-.67-8.75-5.38-8.08-10.52h0c.67-5.14,5.38-8.75,10.52-8.08l24.96,3.27c5.14.67,8.75,5.38,8.08,10.52h0c-.67,5.14-5.38,8.75-10.52,8.08Z"/>
        <path class="cls-4" d="m1097.27,331.57l-24.96-3.27c-5.14-.67-8.75-5.38-8.08-10.52h0c.67-5.14,5.38-8.75,10.52-8.08l24.96,3.27c5.14.67,8.75,5.38,8.08,10.52h0c-.67,5.14-5.38,8.75-10.52,8.08Z"/>
        <path class="cls-3" d="m1095.85,323.68l-20.66-2.71,6.04-46.15c.75-5.71,5.98-9.73,11.68-8.98h0c5.71.75,9.73,5.98,8.98,11.68l-6.04,46.15Z"/>
        <path class="cls-4" d="m1164.08,340.31l-24.96-3.27c-5.14-.67-8.75-5.38-8.08-10.52h0c.67-5.14,5.38-8.75,10.52-8.08l24.96,3.27c5.14.67,8.75,5.38,8.08,10.52h0c-.67,5.14-5.38,8.75-10.52,8.08Z"/>
        <path class="cls-3" d="m1162.66,332.42l-20.66-2.71,6.04-46.15c.75-5.71,5.98-9.73,11.68-8.98h0c5.71.75,9.73,5.98,8.98,11.68l-6.04,46.15Z"/>
        <path class="cls-4" d="m1230.88,349.06l-24.96-3.27c-5.14-.67-8.75-5.38-8.08-10.52h0c.67-5.14,5.38-8.75,10.52-8.08l24.96,3.27c5.14.67,8.75,5.38,8.08,10.52h0c-.67,5.14-5.38,8.75-10.52,8.08Z"/>
        <path class="cls-1" d="m787.48,430.34h0c-15.16-1.98-25.84-15.88-23.85-31.04h0c1.98-15.16,15.88-25.84,31.04-23.85h0c15.16,1.98,25.84,15.88,23.85,31.04h0c-1.98,15.16-15.88,25.84-31.04,23.85Z"/>
        <path class="cls-1" d="m858.5,439.64h0c-15.16-1.98-25.84-15.88-23.85-31.04h0c1.98-15.16,15.88-25.84,31.04-23.85h0c15.16,1.98,25.84,15.88,23.85,31.04h0c-1.98,15.16-15.88,25.84-31.04,23.85Z"/>
        <path class="cls-1" d="m926.8,448.58h0c-15.16-1.98-25.84-15.88-23.85-31.04h0c1.98-15.16,15.88-25.84,31.04-23.85h0c15.16,1.98,25.84,15.88,23.85,31.04h0c-1.98,15.16-15.88,25.84-31.04,23.85Z"/>
        <path class="cls-1" d="m999.68,458.13h0c-15.16-1.98-25.84-15.88-23.85-31.04h0c1.98-15.16,15.88-25.84,31.04-23.85h0c15.16,1.98,25.84,15.88,23.85,31.04h0c-1.98,15.16-15.88,25.84-31.04,23.85Z"/>
        <path class="cls-1" d="m1141.62,476.71h0c-15.16-1.98-25.84-15.88-23.85-31.04h0c1.98-15.16,15.88-25.84,31.04-23.85h0c15.16,1.98,25.84,15.88,23.85,31.04h0c-1.98,15.16-15.88,25.84-31.04,23.85Z"/>
        <path class="cls-1" d="m1211.98,485.92h0c-15.16-1.98-25.84-15.88-23.85-31.04h0c1.98-15.16,15.88-25.84,31.04-23.85h0c15.16,1.98,25.84,15.88,23.85,31.04h0c-1.98,15.16-15.88,25.84-31.04,23.85Z"/>
        <path class="cls-4" d="m779.51,491.25h0c-15.16-1.98-25.84-15.88-23.85-31.04h0c1.98-15.16,15.88-25.84,31.04-23.85h0c15.16,1.98,25.84,15.88,23.85,31.04h0c-1.98,15.16-15.88,25.84-31.04,23.85Z"/>
        <path class="cls-4" d="m850.53,500.55h0c-15.16-1.98-25.84-15.88-23.85-31.04h0c1.98-15.16,15.88-25.84,31.04-23.85h0c15.16,1.98,25.84,15.88,23.85,31.04h0c-1.98,15.16-15.88,25.84-31.04,23.85Z"/>
        <path class="cls-4" d="m918.83,509.49h0c-15.16-1.98-25.84-15.88-23.85-31.04h0c1.98-15.16,15.88-25.84,31.04-23.85h0c15.16,1.98,25.84,15.88,23.85,31.04h0c-1.98,15.16-15.88,25.84-31.04,23.85Z"/>
        <path class="cls-4" d="m991.71,519.03h0c-15.16-1.98-25.84-15.88-23.85-31.04h0c1.98-15.16,15.88-25.84,31.04-23.85h0c15.16,1.98,25.84,15.88,23.85,31.04h0c-1.98,15.16-15.88,25.84-31.04,23.85Z"/>
        <path class="cls-1" d="m1133.65,537.61h0c-15.16-1.98-25.84-15.88-23.85-31.04h0c1.98-15.16,15.88-25.84,31.04-23.85h0c15.16,1.98,25.84,15.88,23.85,31.04h0c-1.98,15.16-15.88,25.84-31.04,23.85Z"/>
        <path class="cls-1" d="m1204.01,546.83h0c-15.16-1.98-25.84-15.88-23.85-31.04h0c1.98-15.16,15.88-25.84,31.04-23.85h0c15.16,1.98,25.84,15.88,23.85,31.04h0c-1.98,15.16-15.88,25.84-31.04,23.85Z"/>
        <path class="cls-1" d="m771.54,552.15h0c-15.16-1.98-25.84-15.88-23.85-31.04h0c1.98-15.16,15.88-25.84,31.04-23.85h0c15.16,1.98,25.84,15.88,23.85,31.04h0c-1.98,15.16-15.88,25.84-31.04,23.85Z"/>
        <path class="cls-1" d="m842.55,561.45h0c-15.16-1.98-25.84-15.88-23.85-31.04h0c1.98-15.16,15.88-25.84,31.04-23.85h0c15.16,1.98,25.84,15.88,23.85,31.04h0c-1.98,15.16-15.88,25.84-31.04,23.85Z"/>
        <path class="cls-1" d="m910.85,570.39h0c-15.16-1.98-25.84-15.88-23.85-31.04h0c1.98-15.16,15.88-25.84,31.04-23.85h0c15.16,1.98,25.84,15.88,23.85,31.04h0c-1.98,15.16-15.88,25.84-31.04,23.85Z"/>
        <path class="cls-1" d="m983.74,579.93h0c-15.16-1.98-25.84-15.88-23.85-31.04h0c1.98-15.16,15.88-25.84,31.04-23.85h0c15.16,1.98,25.84,15.88,23.85,31.04h0c-1.98,15.16-15.88,25.84-31.04,23.85Z"/>
        <path class="cls-1" d="m1054.76,589.23h0c-15.16-1.98-25.84-15.88-23.85-31.04h0c1.98-15.16,15.88-25.84,31.04-23.85h0c15.16,1.98,25.84,15.88,23.85,31.04h0c-1.98,15.16-15.88,25.84-31.04,23.85Z"/>
        <path class="cls-1" d="m1125.67,598.52h0c-15.16-1.98-25.84-15.88-23.85-31.04h0c1.98-15.16,15.88-25.84,31.04-23.85h0c15.16,1.98,25.84,15.88,23.85,31.04h0c-1.98,15.16-15.88,25.84-31.04,23.85Z"/>
        <path class="cls-1" d="m1196.03,607.73h0c-15.16-1.98-25.84-15.88-23.85-31.04h0c1.98-15.16,15.88-25.84,31.04-23.85h0c15.16,1.98,25.84,15.88,23.85,31.04h0c-1.98,15.16-15.88,25.84-31.04,23.85Z"/>
        <path class="cls-1" d="m763.56,613.05h0c-15.16-1.98-25.84-15.88-23.85-31.04h0c1.98-15.16,15.88-25.84,31.04-23.85h0c15.16,1.98,25.84,15.88,23.85,31.04h0c-1.98,15.16-15.88,25.84-31.04,23.85Z"/>
        <path class="cls-1" d="m834.58,622.35h0c-15.16-1.98-25.84-15.88-23.85-31.04h0c1.98-15.16,15.88-25.84,31.04-23.85h0c15.16,1.98,25.84,15.88,23.85,31.04h0c-1.98,15.16-15.88,25.84-31.04,23.85Z"/>
        <path class="cls-1" d="m902.88,631.29h0c-15.16-1.98-25.84-15.88-23.85-31.04h0c1.98-15.16,15.88-25.84,31.04-23.85h0c15.16,1.98,25.84,15.88,23.85,31.04h0c-1.98,15.16-15.88,25.84-31.04,23.85Z"/>
        <path class="cls-1" d="m975.76,640.84h0c-15.16-1.98-25.84-15.88-23.85-31.04h0c1.98-15.16,15.88-25.84,31.04-23.85h0c15.16,1.98,25.84,15.88,23.85,31.04h0c-1.98,15.16-15.88,25.84-31.04,23.85Z"/>
        <path class="cls-1" d="m1046.79,650.14h0c-15.16-1.98-25.84-15.88-23.85-31.04h0c1.98-15.16,15.88-25.84,31.04-23.85h0c15.16,1.98,25.84,15.88,23.85,31.04h0c-1.98,15.16-15.88,25.84-31.04,23.85Z"/>
        <path class="cls-1" d="m1117.7,659.42h0c-15.16-1.98-25.84-15.88-23.85-31.04h0c1.98-15.16,15.88-25.84,31.04-23.85h0c15.16,1.98,25.84,15.88,23.85,31.04h0c-1.98,15.16-15.88,25.84-31.04,23.85Z"/>
        <path class="cls-1" d="m1188.06,668.63h0c-15.16-1.98-25.84-15.88-23.85-31.04h0c1.98-15.16,15.88-25.84,31.04-23.85h0c15.16,1.98,25.84,15.88,23.85,31.04h0c-1.98,15.16-15.88,25.84-31.04,23.85Z"/>
        <path class="cls-1" d="m755.59,673.96h0c-15.16-1.98-25.84-15.88-23.85-31.04h0c1.98-15.16,15.88-25.84,31.04-23.85h0c15.16,1.98,25.84,15.88,23.85,31.04h0c-1.98,15.16-15.88,25.84-31.04,23.85Z"/>
        <path class="cls-1" d="m826.6,683.26h0c-15.16-1.98-25.84-15.88-23.85-31.04h0c1.98-15.16,15.88-25.84,31.04-23.85h0c15.16,1.98,25.84,15.88,23.85,31.04h0c-1.98,15.16-15.88,25.84-31.04,23.85Z"/>
        <path class="cls-1" d="m894.9,692.2h0c-15.16-1.98-25.84-15.88-23.85-31.04h0c1.98-15.16,15.88-25.84,31.04-23.85h0c15.16,1.98,25.84,15.88,23.85,31.04h0c-1.98,15.16-15.88,25.84-31.04,23.85Z"/>
        <path class="cls-3" d="m1028.94,314.92l-20.66-2.71,6.04-46.15c.75-5.71,5.98-9.73,11.68-8.98h0c5.71.75,9.73,5.98,8.98,11.68l-6.04,46.15Z"/>
        <path class="cls-3" d="m1229.96,339.48l-20.66-2.71,6.04-46.15c.75-5.71,5.98-9.73,11.68-8.98h0c5.71.75,9.73,5.98,8.98,11.68l-6.04,46.15Z"/>
        <path class="cls-1" d="m1070.65,467.42h0c-15.16-1.98-25.84-15.88-23.85-31.04h0c1.98-15.16,15.88-25.84,31.04-23.85h0c15.16,1.98,25.84,15.88,23.85,31.04h0c-1.98,15.16-15.88,25.84-31.04,23.85Z"/>
        <path class="cls-4" d="m1062.68,528.32h0c-15.16-1.98-25.84-15.88-23.85-31.04h0c1.98-15.16,15.88-25.84,31.04-23.85h0c15.16,1.98,25.84,15.88,23.85,31.04h0c-1.98,15.16-15.88,25.84-31.04,23.85Z"/>
      </g>
      <path class="cls-3" d="m260.16,499.35c-4.4,11.11-6.87,23.55-8.25,34.64-4.1,33.02,2.7,67.17,16.75,97.15,21.77,46.46,59.01,83.82,98.16,116.99,20.11,17.03,46.84,37.37,49.24,65.77,2.69,31.95-9.47,61.42-24.97,88.61-25.42,44.58-54.18,88.46-66.31,138.32-12.14,49.87-3.94,108.59,35.02,141.99,31.36,26.88,75.6,15.17,112.98,10.77,49.12-5.78,98.18-12.25,146.85-21.16,19.63-3.59,39.56-7.69,56.99-17.41,5.38-3,10.64-6.69,13.75-12,2.34-4,3.3-8.63,4.1-13.2,8.28-47.28,4.44-103.79-21.28-145.55-6.83-11.09-15.28-21.08-23.7-31.02-29.11-34.39-59.29-55.75-94.56-83.38-20.19-15.82-40.39-35.87-42.52-61.43-3.12-37.3,25.11-54.08,46-79.45,30.78-37.4,53.58-81.93,62.2-129.59,5.52-30.53,7.12-65.76-3.85-95.37-7.66-20.67-22.8-51.18-45.72-57.58-9.17-2.56-18.91-1.63-28.39-.67-80.57,8.12-161.13,16.24-241.7,24.36-15.46,1.56-25.96,3.47-34.21,16.24-2.56,3.96-4.73,8.35-6.56,12.97Z"/>
      <g>
        <path class="cls-5" d="m238.96,499.5c-.75-.1-1.49-.23-2.23-.41-5.96-1.38-11.64-5.86-12.46-11.91-2.88-21.3,38.57-29.18,52.31-31.3,99.68-15.38,199.36-30.76,299.05-46.15,14.24-2.2,34.53,6.28,27.15,24.17-5.98,14.48-41.14,20.92-54.44,23.99-40.59,9.37-82.65,8.3-123.68,14.6-56.56,8.68-113.41,15.87-169.74,25.85-5.27.94-10.7,1.87-15.97,1.16Z"/>
        <path class="cls-5" d="m328.8,1188.35c-6.89,1.24-14.44,2.88-18.68,8.46-5.61,7.39-2.42,18.8,4.67,24.78,7.09,5.98,16.8,7.7,26.06,8.27,17.06,1.05,34.14-1.03,51.09-3.22,60.57-7.81,120.96-16.98,181.12-27.52,22.18-3.88,147.45-12.06,147.47-44.44,0-6.97-5.9-12.83-12.5-15.07-6.6-2.24-13.78-1.65-20.73-1.03-120.13,10.65-239.46,28.37-358.51,49.77Z"/>
      </g>
      <g>
        <path class="cls-4" d="m431.91,617.09c-43.25,2.83-86,7.44-126.09,23.26,14.89,20.57,28.2,39.63,47.45,56.27,37.06,32.02,73.88,72.04,117.35,95.11,11.93-19.49,25.35-38.07,40.11-55.52,13.66-16.15,29.39-31.18,41.34-48.7,11.63-17.06,18.82-38.36,27.83-57.17,4.79-9.99,9.6-21.76,4.66-31.68-49.19,14.19-101.28,15.05-152.65,18.42Z"/>
        <path class="cls-4" d="m440.21,1001.39c1.17.41,2.39.76,3.66,1.05,23.33,5.36,41.2-19.14,38.22-41.67-3.38-25.52-14.99-54.84-20.88-80.65-2.67-11.68-5.97-24.07-14.93-32.02,2.66,2.36-30.68,86.22-31.91,96.99-2.4,21.06,3.85,48.65,25.84,56.3Z"/>
        <path class="cls-4" d="m657.83,1042.27c-62.82,15.34-127.96,9.28-191.77,5.69-32.28-1.81-64.38-2.6-96.68-.95-10.78.55-19.22-1.4-24.92,8.47-6.63,11.48-1.57,31.38,1.64,43.11,1.64,5.99,17.49,54.84,27.36,52.72,89.95-19.34,183.19-16.68,274.16-30.47,4.67-.71,9.76-1.69,12.78-5.32,6.8-8.15,9.28-32.02,11.26-42.96,1.33-7.33-.66-36.38-14.82-28.45"/>
      </g>
      <g>
        <path class="cls-6" d="m359.78,654.99c-4.12,2.06-4.65,8.79-.91,11.47,3.74,2.69,9.94.03,10.58-4.54s-4.61-8.81-8.94-7.25"/>
        <path class="cls-6" d="m392.9,690.75c.78,3.88,6.05,7.28,9.38,4.41,4.99-4.31-5-14.76-8.96-7.43-.52.97-.63,2.02-.43,3.03Z"/>
        <path class="cls-6" d="m460.76,680.82c9.34-3.83,6.79-15-1.06-18.54-5.67-2.56-15.06-.02-14.94,7.47.11,6.7,9.74,13.63,15.99,11.07Z"/>
        <path class="cls-6" d="m417.74,1102.61c9.05,2.1,8.97-17.85-2.37-14.87-9.12,2.4-4.62,13.24,2.37,14.87Z"/>
        <path class="cls-6" d="m477.52,1116.23c4.55,3.56,11.61,3.42,16.02-.31,4.41-3.74,5.71-10.67,2.95-15.75-3.23-5.94-12.77-8.34-18.82-5.57-8.8,4.03-6.79,16.44-.15,21.63Z"/>
      </g>
      <path class="cls-8" d="m366.04,400.72c11.21,16.36,14.8,36.76,15.87,56.57s-.09,39.79,2.88,59.4c1.05,6.94,2.71,14.02,6.84,19.69,4.13,5.68,11.24,9.66,18.12,8.29,5.75-1.14,10.25-5.7,13.3-10.7,7.89-12.96,8.01-29.22,5.57-44.19-3.65-22.37-12.87-41.41-25.03-60.27"/>
      <path class="cls-8" d="m475.92,501.28c19.15,6.9,39.79,9.65,60.08,8,7.25-.59,14.76-1.85,20.67-6.08,5.91-4.24,9.71-12.2,7.1-18.99-2.47-6.42-9.51-9.74-16.12-11.67-34.41-10.04-80.35-2.1-113.6-15.48"/>
      <path class="cls-8" d="m600.9,600.24c-4.85,2.01-10.11,4.58-15.32,4.8-3.28.14-14.61-.32-16.96-2.76,23.3,24.15,66.06,32.57,96.93,20.89,8.87-3.36,18.09-9.73,18.93-19.17.64-7.24-4.21-14.2-10.6-17.66-6.39-3.47-14.01-3.97-21.24-3.24-13.56,1.35-26.37,6.63-38.95,11.85-4.26,1.77-8.52,3.53-12.78,5.3Z"/>
      <path class="cls-8" d="m273.79,452.45c-9.54-14.28-10.46-33.74-1.97-48.75,7.93-14.01,23.7-22.9,39.71-23.15,16.53-.27,32.73,8.08,45.93,17.31s25.71,21.34,38.1,32.52c14.15,12.77,29.23,24.47,43.54,37.07,14.86,13.09,29.16,26.94,41.56,42.42,6.28,7.84,11.78,16.25,17.83,24.26s13.1,15.52,20.14,22.89c14.49,15.17,29.4,29.95,45.53,43.37s32.04,24.88,48.61,36.57c8.83,6.23,17.68,12.43,26.52,18.64s16.78,12.33,25.77,17.48c4.11,2.36,8.42,4.37,12.93,5.85,3.06,1,4.38-3.82,1.33-4.82-9.64-3.16-17.97-9.11-26.2-14.89-9.2-6.46-18.4-12.93-27.6-19.39-17.2-12.09-34.44-24.16-50.86-37.31s-31.96-27.87-46.77-43.11c-7.48-7.69-15.18-15.34-21.9-23.72-6.27-7.81-11.76-16.21-17.78-24.21-12.29-16.32-26.8-30.82-42-44.42s-30.18-25.13-44.84-38.2c-12.77-11.39-25.01-23.46-38.88-33.55s-29.33-18.13-46.22-19.61-33.49,5.82-43.93,18.49c-11.17,13.54-14.24,32.72-8.55,49.26,1.4,4.06,3.29,7.94,5.68,11.51,1.78,2.66,6.11.16,4.32-2.52h0Z"/>
      <path class="cls-3" d="m596.5,606.63c4.4-.43,8.16-2.69,12.04-4.61,4.38-2.16,8.9-4.01,13.47-5.72s8.9-3.18,13.37-4.69,9.37-3.02,14.29-3.18c5.6-.17,11.07,1.23,16.4,2.81,1.03.31,1.46-1.3.44-1.6-4.64-1.38-9.37-2.6-14.22-2.84s-9.43.72-13.96,2.11c-9.13,2.8-18.29,6.03-27,9.97-2.38,1.07-4.7,2.27-7.03,3.44-2.47,1.25-5.02,2.39-7.8,2.66-1.05.1-1.06,1.76,0,1.66h0Z"/>
      <path class="cls-3" d="m457.18,468.32c9.55,3.06,19.61,3.9,29.58,4.32,10.67.45,21.36.45,31.98,1.7,6.36.75,12.65,1.99,18.77,3.9,1.02.32,1.46-1.28.44-1.6-10.42-3.25-21.28-4.46-32.14-4.99s-20.92-.41-31.32-1.53c-5.71-.62-11.38-1.65-16.86-3.41-1.02-.33-1.46,1.27-.44,1.6h0Z"/>
      <path class="cls-3" d="m381.69,425.43c3.64,9.4,6.04,19.19,6.97,29.23.86,9.37.58,18.79.3,28.18-.18,5.98-.36,11.96-.38,17.95,0,1.07,1.65,1.07,1.66,0,.08-19.55,2.28-39.36-1.79-58.67-1.23-5.84-3-11.55-5.15-17.12-.38-.98-1.99-.56-1.6.44h0Z"/>
      <g>
        <path class="cls-8" d="m518.54,554.21c4.23,22.07,6.48,44.51,6.74,66.97.14,12.27-.29,24.77,3.18,36.54,3.47,11.77,11.72,22.97,23.57,26.18,3.2.87,6.65,1.12,9.8.09,8.37-2.73,11.48-12.89,12.26-21.67,2.03-22.92-3.57-46.46-15.7-66.02"/>
        <path class="cls-8" d="m528.19,582.06c1.3,9.63,2.49,19.28,3.58,28.94.96,8.56-.33,16.78.24,25.41.75,11.34,3.62,23.05,11.11,31.59"/>
        <g class="cls-10">
          <path class="cls-8" d="m539.81,580.68c9.91,22.97,19.3,46.68,21.11,71.62.7,9.64.28,19.53,3.26,28.73"/>
        </g>
      </g>
      <g class="cls-10">
        <path class="cls-2" d="m389.29,421.35c8.28,13.61,13.73,28.7,16.94,44.26s4.25,31.96,3.95,48.04c-.17,9.06-.76,18.12-1.64,27.14-.1,1.06,1.56,1.05,1.66,0,1.58-16.22,2.24-32.57,1.16-48.85-1.06-15.99-3.79-31.95-9.14-47.09-3-8.48-6.82-16.66-11.49-24.34-.55-.91-1.99-.08-1.43.84h0Z"/>
      </g>
      <g class="cls-10">
        <path class="cls-2" d="m574.95,608.13c26.78,11,56.54,8.22,84.18,2.35,8.21-1.74,16.35-3.76,24.49-5.77,1.04-.26.6-1.86-.44-1.6-27.83,6.89-56.68,13.99-85.5,9.54-7.64-1.18-15.14-3.17-22.29-6.11-.99-.41-1.42,1.2-.44,1.6h0Z"/>
      </g>
      <g>
        <path class="cls-8" d="m642.2,652.53c20.87,1.28,41.86.65,62.63-1.89,11.34-1.39,22.84-3.34,34.12-1.51,11.28,1.84,22.59,8.29,26.95,19.14,1.18,2.93,1.81,6.18,1.24,9.29-1.53,8.29-10.55,12.5-18.56,14.32-20.93,4.76-43.32,2.36-62.8-6.74"/>
        <path class="cls-8" d="m669.06,658.26c9.05.04,18.1-.02,27.15-.18,8.02-.14,15.45-2.39,23.49-2.92,10.56-.69,21.71.58,30.48,6.64"/>
        <g class="cls-10">
          <path class="cls-8" d="m669.15,669.46c22.37,6.57,45.37,12.55,68.62,11.19,8.98-.53,18.07-2.15,26.91-.46"/>
        </g>
      </g>
      <g class="cls-10">
        <path class="cls-2" d="m453.86,474.17c9.41,9.17,22.13,13.52,34.81,15.86,7.07,1.3,14.24,2.05,21.39,2.67,8.18.71,16.38,1.14,24.59,1.3,9.28.18,18.56,0,27.82-.54,1.06-.06,1.07-1.72,0-1.66-16.07.91-32.19.78-48.24-.42-13.7-1.03-27.84-2.31-40.82-7.12-6.8-2.52-13.17-6.18-18.39-11.26-.76-.75-1.94.43-1.17,1.17h0Z"/>
      </g>
      <path class="cls-3" d="m1094.97,727.46c-.8-7.51-2.36-15.91-8.62-20.15-7.26-4.92-17.76-1.46-23.45,5.21-7.24,8.49-8.54,20.44-8.76,31.59-.71,35.62,6.41,71.38,20.71,104.01l20.06-1.02c2.14-39.87,4.28-79.95.05-119.66Z"/>
      <path class="cls-3" d="m1171.55,741.1c2.62-7.08,4.94-15.31,1.22-21.88-4.32-7.63-15.26-9.19-23.33-5.74-10.25,4.39-16.72,14.53-21.87,24.42-16.45,31.6-25.94,66.81-27.62,102.39l18.43,7.99c19.62-34.78,39.33-69.74,53.17-107.19Z"/>
      <path class="cls-3" d="m1225.08,796.54c5.39-5.29,11.01-11.72,10.46-19.26-.64-8.75-9.87-14.83-18.64-15.16-11.15-.41-21.33,5.99-30.21,12.73-28.37,21.55-52,49.31-68.73,80.77l13.24,15.1c32.6-23.06,65.36-46.24,93.88-74.19Z"/>
      <path class="cls-3" d="m1257.14,852.64c7.09-2.61,14.85-6.19,17.43-13.28,2.99-8.24-2.93-17.58-10.8-21.46-10-4.94-21.91-3.27-32.78-.76-34.71,8.04-67.64,23.69-95.78,45.54l5.9,19.2c39.18-7.68,78.57-15.42,116.03-29.24Z"/>
      <path class="cls-3" d="m1250.59,916.77c7.55.28,16.08-.07,21.17-5.65,5.91-6.48,3.98-17.37-1.81-23.95-7.37-8.37-19.01-11.37-30.02-13.18-35.16-5.78-71.56-3.84-105.9,5.65l-1.86,20c39.16,7.81,78.52,15.65,118.42,17.13Z"/>
      <path class="cls-3" d="m1223.57,980.61c6.72,3.45,14.6,6.74,21.57,3.83,8.1-3.38,10.95-14.05,8.49-22.47-3.13-10.7-12.42-18.34-21.63-24.64-29.41-20.11-63.22-33.75-98.36-39.67l-10.14,17.34c32.18,23.64,64.53,47.39,100.07,65.61Z"/>
      <path class="cls-3" d="m1170.21,1037.19c4.49,6.07,10.09,12.52,17.63,13.01,8.75.57,16.05-7.73,17.58-16.37,1.94-10.98-2.99-21.95-8.44-31.68-17.43-31.08-41.67-58.31-70.52-79.21l-16.78,11.03c18.34,35.47,36.79,71.11,60.54,103.21Z"/>
      <path class="cls-3" d="m1094.5,1051.6c1.47,7.41,3.78,15.63,10.38,19.3,7.67,4.25,17.82-.13,22.89-7.29,6.45-9.1,6.68-21.12,5.9-32.25-2.48-35.54-12.76-70.52-29.91-101.75l-19.89,2.8c1.42,39.91,2.87,80.01,10.63,119.18Z"/>
      <path class="cls-3" d="m1030.01,1047.68c-1.7,7.36-2.96,15.81,1.57,21.86,5.26,7.02,16.31,7.18,23.87,2.73,9.61-5.66,14.74-16.53,18.59-27,12.3-33.44,17.24-69.56,14.38-105.07l-19.29-5.59c-15.04,36.99-30.15,74.17-39.12,113.08Z"/>
      <path class="cls-3" d="m979.95,1007.06c-4.37,6.16-8.75,13.49-6.87,20.81,2.19,8.49,12.35,12.85,21.03,11.61,11.04-1.57,19.93-9.68,27.47-17.89,24.1-26.24,42.42-57.76,53.3-91.69l-15.71-12.51c-27.99,28.48-56.11,57.11-79.22,89.68Z"/>
      <path class="cls-3" d="m934.06,951.14c-6.5,3.9-13.48,8.87-14.6,16.36-1.29,8.7,6.5,16.82,15.1,19.2,10.94,3.02,22.43-.83,32.71-5.33,32.84-14.38,62.35-35.96,85.84-62.77l-9.78-17.88c-37.35,14.86-74.89,29.81-109.28,50.42Z"/>
      <path class="cls-3" d="m912.74,875.51c-7.62.6-16.16,1.94-20.52,8.11-5.06,7.16-1.66,17.81,5.05,23.71,8.53,7.5,20.64,9.13,31.95,9.66,36.11,1.68,72.44-4.5,105.68-17.98l-.83-20.19c-40.41-3.24-81.03-6.48-121.33-3.31Z"/>
      <path class="cls-3" d="m939.76,803.28c-7.21-2.69-15.56-5.1-22.19-1.42-7.7,4.28-9.19,15.26-5.62,23.4,4.54,10.34,14.87,16.94,24.95,22.2,32.19,16.81,67.96,26.65,104.07,28.65l7.95-18.45c-35.43-20.03-71.05-40.14-109.15-54.37Z"/>
      <path class="cls-3" d="m976.84,750.36c-5.51-5.36-12.2-10.94-19.82-10.3-8.85.74-14.76,10.09-14.83,18.9-.1,11.21,6.67,21.37,13.76,30.23,22.65,28.29,51.46,51.73,83.83,68.19l14.93-13.48c-24.3-32.52-48.73-65.19-77.87-93.55Z"/>
      <path class="cls-3" d="m1038.29,729.29c-3.07-7.01-7.16-14.65-14.5-16.94-8.53-2.66-17.61,3.69-21.07,11.76-4.4,10.25-1.99,22.14,1.21,32.95,10.22,34.52,28.06,66.92,51.87,94.26l19.08-6.74c-10.14-39.03-20.34-78.25-36.59-115.29Z"/>
      <path class="cls-7" d="m1170.85,861.83c-.34-4.39-1.03-8.78-2.12-13.14-9.79-39.09-48.89-54.15-85.7-46.98-35.1,6.84-70.24,30.33-82.14,65.27-11.64,34.21,1.39,76.37,31.62,96.7,31.75,21.34,70.46,9.85,97.51-13.48,24.87-21.44,43.38-54.9,40.82-88.37Z"/>
      <path class="cls-6" d="m1130.05,951.56c-27.07,23.33-65.81,34.78-97.54,13.47-22.01-14.79-34.92-41.17-35.82-67.62,6.11,12.57,15.2,23.6,26.8,31.45,31.79,21.38,70.46,9.86,97.54-13.47,23.32-20.13,41.03-50.75,41.03-82.05,2.85,5,5.14,10.55,6.67,16.66,1.11,4.37,1.8,8.82,2.15,13.19,2.57,33.46-15.97,66.92-40.82,88.37Z"/>
      <path class="cls-3" d="m907.29,993.84c2.12-3.09,4.24-6.77,3.25-10.39-1.15-4.2-6.24-6.28-10.54-5.6-5.47.87-9.82,4.96-13.5,9.1-11.77,13.23-20.62,29.03-25.75,45.97l7.9,6.09c13.68-14.37,27.42-28.81,38.64-45.17Z"/>
      <path class="cls-3" d="m931.81,1023.71c3.28-1.83,6.81-4.18,7.52-7.87.83-4.28-2.8-8.4-6.96-9.7-5.29-1.65-11,.09-16.14,2.16-16.41,6.63-31.36,16.86-43.48,29.76l4.38,8.97c18.64-6.8,37.37-13.64,54.68-23.32Z"/>
      <path class="cls-3" d="m934.13,1061.92c3.74-.26,7.94-.87,10.16-3.9,2.58-3.51,1.06-8.79-2.15-11.74-4.08-3.75-9.99-4.62-15.52-4.94-17.67-1.02-35.56,1.84-52.03,8.32l.13,9.98c19.75,1.82,39.61,3.63,59.4,2.28Z"/>
      <path class="cls-3" d="m928.13,1093.46c3.52,1.3,7.6,2.46,10.87.61,3.79-2.15,4.57-7.58,2.85-11.59-2.18-5.09-7.22-8.31-12.13-10.87-15.7-8.17-33.19-12.88-50.87-13.72l-3.97,9.16c17.28,9.75,34.65,19.54,53.26,26.41Z"/>
      <path class="cls-3" d="m904.96,1115.57c2.76,2.54,6.1,5.17,9.82,4.7,4.32-.54,7.11-5.28,7.05-9.63-.08-5.54-3.51-10.43-7.08-14.67-11.41-13.53-25.79-24.55-41.82-32.05l-7.16,6.95c12.27,15.59,24.6,31.26,39.2,44.69Z"/>
      <path class="cls-3" d="m874.15,1130.96c1.43,3.47,3.34,7.26,6.91,8.41,4.15,1.34,8.67-1.77,10.46-5.75,2.27-5.05,1.23-10.94-.22-16.29-4.62-17.09-12.99-33.15-24.34-46.73l-9.43,3.27c4.52,19.32,9.08,38.73,16.61,57.08Z"/>
      <path class="cls-3" d="m835.73,1135.1c-.26,3.74-.23,7.99,2.46,10.6,3.12,3.04,8.56,2.26,11.92-.51,4.28-3.52,5.96-9.25,7.04-14.69,3.45-17.36,3.08-35.47-1.07-52.68l-9.9-1.25c-4.52,19.32-9.06,38.73-10.45,58.52Z"/>
      <path class="cls-3" d="m802.49,1116.11c-1.84,3.27-3.62,7.12-2.31,10.64,1.52,4.08,6.77,5.7,11,4.64,5.37-1.35,9.34-5.82,12.64-10.27,10.54-14.22,17.94-30.75,21.55-48.08l-8.42-5.36c-12.34,15.53-24.74,31.14-34.46,48.44Z"/>
      <path class="cls-3" d="m779.39,1093.81c-3.02,2.23-6.22,5.01-6.46,8.76-.28,4.35,3.84,7.98,8.13,8.73,5.46.96,10.9-1.49,15.74-4.2,15.44-8.66,28.96-20.71,39.35-35.04l-5.48-8.34c-17.62,9.11-35.33,18.28-51.27,30.08Z"/>
      <path class="cls-3" d="m773.6,1062.31c-3.64.92-7.66,2.27-9.31,5.64-1.92,3.91.52,8.84,4.2,11.17,4.68,2.97,10.65,2.78,16.15,2.11,17.57-2.13,34.67-8.12,49.73-17.43l-1.9-9.8c-19.76,1.72-39.63,3.46-58.87,8.3Z"/>
      <path class="cls-3" d="m774.32,1026.38c-3.71-.63-7.95-1-10.79,1.47-3.3,2.87-2.98,8.45-.49,12.13,3.16,4.67,8.74,6.93,14.07,8.54,17.04,5.17,35.15,6.54,52.68,4l2.08-9.91c-18.91-6.44-37.91-12.92-57.55-16.23Z"/>
      <path class="cls-3" d="m790.68,990.93c-3.07-2.23-6.73-4.48-10.37-3.56-4.22,1.07-6.38,6.19-5.75,10.58.8,5.59,4.85,10.11,8.95,13.96,13.1,12.29,28.81,21.68,45.72,27.32l6.2-7.89c-14.22-14.27-28.51-28.6-44.76-40.41Z"/>
      <path class="cls-3" d="m824.2,972.37c-1.85-3.34-4.23-6.95-7.92-7.7-4.29-.87-8.4,2.8-9.68,7.02-1.62,5.37.15,11.2,2.26,16.44,6.73,16.74,17.06,32,30.06,44.41l8.96-4.4c-6.92-19-13.88-38.09-23.67-55.77Z"/>
      <path class="cls-3" d="m855.28,964.36c-.35-3.8-1.08-8.07-4.16-10.29-3.58-2.58-8.83-.95-11.7,2.35-3.66,4.2-4.38,10.22-4.56,15.86-.58,17.99,2.74,36.15,9.65,52.81l9.99-.27c1.32-20.12,2.64-40.35.79-60.47Z"/>
      <path class="cls-3" d="m885.29,976.23c1.1-3.64,2.02-7.84,0-11.08-2.36-3.76-7.85-4.29-11.75-2.36-4.97,2.45-7.9,7.72-10.18,12.83-7.28,16.34-11.01,34.33-10.83,52.34l9.38,3.61c8.77-18.01,17.58-36.12,23.4-55.35Z"/>
      <path class="cls-7" d="m892.58,1069.08c1.29-1.76,2.44-3.65,3.44-5.65,8.92-17.92-.98-36.23-17.2-45.41-15.46-8.75-36.32-11.22-52.09-1.86-15.44,9.16-24.13,29.29-19.27,46.73,5.1,18.31,23.43,26.46,41.18,26.38,16.31-.07,34.1-6.73,43.94-20.2Z"/>
      <path class="cls-6" d="m848.2,1089.8c-17.75.07-36.08-8.11-41.18-26.4-3.54-12.69.1-26.82,8.3-37.1-1.75,6.72-1.88,13.82-.03,20.53,5.11,18.34,23.43,26.47,41.18,26.4,15.31-.07,31.88-5.92,41.98-17.75-.54,2.81-1.47,5.64-2.86,8.44-.99,2.01-2.16,3.91-3.44,5.68-9.83,13.47-27.63,20.12-43.94,20.2Z"/>
    </g>
  </g>
</svg>